<svg xmlns="http://www.w3.org/2000/svg" viewBox="0 0 233.44 247.5"><defs><style>.cls-1{fill:#f27921;}</style></defs><g id="Layer_4" data-name="Layer 4"><g id="_logo3" data-name=" logo3"><polygon class="cls-1" points="43 202.7 85.67 155.71 85.67 202.7 106.97 202.69 184.15 124.1 111.83 124.1 145.24 132.71 106.97 170.35 106.97 124.17 85.85 124.1 43 171.1 43 150.87 85.67 104.74 106.97 117.26 106.97 57.73 21.52 145.38 21.52 202.7 43 202.7"/><path class="cls-1" d="M111.83,202.7H211.92v-17H152.47l14.64-14.24h44.81v-16H181.06l14.52-14.87c.14-.14,16.34,0,16.34,0V124.1H191Z"/><path d="M111.83,57.73v59.53H211.92Zm12.6,21.85,46.17,26.69H124.43Z"/></g></g></svg>