<svg xmlns="http://www.w3.org/2000/svg" viewBox="0 0 233.44 247.5"><defs><style>.cls-1{fill:#fff;}</style></defs><g id="Layer_4" data-name="Layer 4"><g id="_logo2" data-name=" logo2"><polygon class="cls-1" points="43 195.28 85.67 148.29 85.67 195.28 106.97 195.28 184.15 116.69 111.83 116.69 145.24 125.29 106.97 162.93 106.97 116.75 85.85 116.69 43 163.68 43 143.46 85.67 97.32 106.97 109.84 106.97 50.31 21.52 137.97 21.52 195.28 43 195.28"/><path class="cls-1" d="M111.83,195.28H211.92v-17H152.47L167.11,164h44.81V148H181.06l14.52-14.86c.14-.15,16.34,0,16.34,0V116.69H191Z"/><path class="cls-1" d="M111.83,50.31v59.53H211.92Zm12.6,21.85L170.6,98.85H124.43Z"/></g></g></svg>