<svg xmlns="http://www.w3.org/2000/svg" viewBox="0 0 233.44 247.5"><defs><style>.cls-1{fill:#f27921;}.cls-2{fill:#f4f1ef;}</style></defs><g id="Layer_4" data-name="Layer 4"><g id="_logo4" data-name=" logo4"><polygon class="cls-1" points="43 196.24 85.67 149.25 85.67 196.24 106.97 196.24 184.15 117.64 111.83 117.64 145.24 126.25 106.97 163.89 106.97 117.71 85.85 117.64 43 164.64 43 144.41 85.67 98.28 106.97 110.8 106.97 51.27 21.52 138.92 21.52 196.24 43 196.24"/><path class="cls-1" d="M111.83,196.24H211.92v-17H152.47L167.11,165h44.81v-16H181.06l14.52-14.87c.14-.14,16.34,0,16.34,0V117.64H191Z"/><path class="cls-2" d="M111.83,51.27V110.8H211.92Zm12.6,21.85L170.6,99.81H124.43Z"/></g></g></svg>