<?xml version="1.0" encoding="utf-8"?><svg xmlns="http://www.w3.org/2000/svg" xmlns:xlink="http://www.w3.org/1999/xlink"><symbol viewBox="-77.34 -77.34 388.13 402.19" id="Artboard_2" xmlns="http://www.w3.org/2000/svg"><defs><style>.acls-1{fill:#f27921}</style></defs><g id="aLayer_4" data-name="Layer 4"><g id="a_logo3" data-name="logo3"><path class="acls-1" d="m43 202.7 42.67-46.99v46.99l21.3-.01 77.18-78.59h-72.32l33.41 8.61-38.27 37.64v-46.18l-21.12-.07-42.85 47v-20.23l42.67-46.13 21.3 12.52V57.73l-85.45 87.65v57.32H43zM111.83 202.7h100.09v-17h-59.45l14.64-14.24h44.81v-16h-30.86l14.52-14.87c.14-.14 16.34 0 16.34 0V124.1H191Z"/><path d="M111.83 57.73v59.53h100.09Zm12.6 21.85 46.17 26.69h-46.17Z"/></g></g></symbol><symbol viewBox="-77.34 -77.34 388.13 402.19" id="Artboard_4" xmlns="http://www.w3.org/2000/svg"><defs><style>.bcls-1{fill:#f27921}</style></defs><g id="bLayer_4" data-name="Layer 4"><g id="b_logo4" data-name="logo4"><path class="bcls-1" d="m43 196.24 42.67-46.99v46.99h21.3l77.18-78.6h-72.32l33.41 8.61-38.27 37.64v-46.18l-21.12-.07-42.85 47v-20.23l42.67-46.13 21.3 12.52V51.27l-85.45 87.65v57.32H43zM111.83 196.24h100.09v-17h-59.45L167.11 165h44.81v-16h-30.86l14.52-14.87c.14-.14 16.34 0 16.34 0v-16.49H191Z"/><path d="M111.83 51.27v59.53h100.09Zm12.6 21.85 46.17 26.69h-46.17Z" style="fill:#f4f1ef"/></g></g></symbol><symbol viewBox="-77.34 -77.34 388.13 402.19" id="Artboard_6" xmlns="http://www.w3.org/2000/svg"><defs><style>.ccls-1{fill:#070808}</style></defs><g id="cLayer_4" data-name="Layer 4"><g id="c_logo1" data-name="logo1"><path class="ccls-1" d="m43 195.28 42.67-46.99v46.99h21.3l77.18-78.59h-72.32l33.41 8.6-38.27 37.64v-46.18l-21.12-.06L43 163.68v-20.22l42.67-46.14 21.3 12.52V50.31l-85.45 87.66v57.31H43zM111.83 195.28h100.09v-17h-59.45L167.11 164h44.81v-16h-30.86l14.52-14.86c.14-.15 16.34 0 16.34 0v-16.45H191Z"/><path class="ccls-1" d="M111.83 50.31v59.53h100.09Zm12.6 21.85 46.17 26.69h-46.17Z"/></g></g></symbol><symbol viewBox="-77.34 -77.34 388.13 402.19" id="Artboard_7" xmlns="http://www.w3.org/2000/svg"><defs><style>.dcls-1{fill:#fff}</style></defs><g id="dLayer_4" data-name="Layer 4"><g id="d_logo2" data-name="logo2"><path class="dcls-1" d="m43 195.28 42.67-46.99v46.99h21.3l77.18-78.59h-72.32l33.41 8.6-38.27 37.64v-46.18l-21.12-.06L43 163.68v-20.22l42.67-46.14 21.3 12.52V50.31l-85.45 87.66v57.31H43zM111.83 195.28h100.09v-17h-59.45L167.11 164h44.81v-16h-30.86l14.52-14.86c.14-.15 16.34 0 16.34 0v-16.45H191Z"/><path class="dcls-1" d="M111.83 50.31v59.53h100.09Zm12.6 21.85 46.17 26.69h-46.17Z"/></g></g></symbol><symbol viewBox="-77.34 -77.34 388.13 402.19" id="Artboard_9" xmlns="http://www.w3.org/2000/svg"><defs><style>.ecls-1{fill:#f27921}</style></defs><g id="eLayer_4" data-name="Layer 4"><g id="e_logo5" data-name="logo5"><path class="ecls-1" d="m43 196.24 42.67-46.99v46.99h21.3l77.18-78.6h-72.32l33.41 8.61-38.27 37.64v-46.18l-21.12-.07-42.85 47v-20.23l42.67-46.13 21.3 12.52V51.27l-85.45 87.65v57.32H43zM111.83 196.24h100.09v-17h-59.45L167.11 165h44.81v-16h-30.86l14.52-14.87c.14-.14 16.34 0 16.34 0v-16.49H191Z"/><path class="ecls-1" d="M111.83 51.27v59.53h100.09Zm12.6 21.85 46.17 26.69h-46.17Z"/></g></g></symbol></svg>