<?xml version="1.0" encoding="utf-8"?><svg xmlns="http://www.w3.org/2000/svg" viewBox="-77.34 -77.34 388.13 402.19" width="50.18" height="52"><defs><style>.acls-1{fill:#f27921}</style></defs><g id="aLayer_4" data-name="Layer 4"><g id="a_logo3" data-name="logo3"><path class="acls-1" d="m43 202.7 42.67-46.99v46.99l21.3-.01 77.18-78.59h-72.32l33.41 8.61-38.27 37.64v-46.18l-21.12-.07-42.85 47v-20.23l42.67-46.13 21.3 12.52V57.73l-85.45 87.65v57.32H43zM111.83 202.7h100.09v-17h-59.45l14.64-14.24h44.81v-16h-30.86l14.52-14.87c.14-.14 16.34 0 16.34 0V124.1H191Z"/><path d="M111.83 57.73v59.53h100.09Zm12.6 21.85 46.17 26.69h-46.17Z"/></g></g></svg>