<?xml version="1.0" encoding="utf-8"?><svg width="52" height="45.43" xmlns="http://www.w3.org/2000/svg" viewBox="-292.19 -292.19 1519.38 1327.38"><view id="gArtboard_2" viewBox="701 0 233.44 247.5"/><svg viewBox="0 0 233.44 247.5" width="233.44" height="247.5" x="701" xmlns="http://www.w3.org/2000/svg"><defs><style>.gccls-1{fill:#070808}.gdcls-1{fill:#fff}.gecls-1{fill:#f27921}.gfccls-1{fill:#070808}.gfdcls-1{fill:#fff}.gfecls-1{fill:#f27921}</style></defs><g id="gaLayer_4" data-name="Layer 4"><g id="ga_logo3" data-name="logo3"><path d="m43 202.7 42.67-46.99v46.99l21.3-.01 77.18-78.59h-72.32l33.41 8.61-38.27 37.64v-46.18l-21.12-.07-42.85 47v-20.23l42.67-46.13 21.3 12.52V57.73l-85.45 87.65v57.32H43zm68.83 0h100.09v-17h-59.45l14.64-14.24h44.81v-16h-30.86l14.52-14.87c.14-.14 16.34 0 16.34 0V124.1H191Z" style="fill:#f27921"/><path d="M111.83 57.73v59.53h100.09Zm12.6 21.85 46.17 26.69h-46.17Z"/></g></g></svg><view id="gArtboard_4" viewBox="701 247.5 233.44 247.5"/><svg viewBox="0 0 233.44 247.5" width="233.44" height="247.5" x="701" y="247.5" xmlns="http://www.w3.org/2000/svg"><g id="gbLayer_4" data-name="Layer 4"><g id="gb_logo4" data-name="logo4"><path d="m43 196.24 42.67-46.99v46.99h21.3l77.18-78.6h-72.32l33.41 8.61-38.27 37.64v-46.18l-21.12-.07-42.85 47v-20.23l42.67-46.13 21.3 12.52V51.27l-85.45 87.65v57.32H43zm68.83 0h100.09v-17h-59.45L167.11 165h44.81v-16h-30.86l14.52-14.87c.14-.14 16.34 0 16.34 0v-16.49H191Z" style="fill:#f27921"/><path d="M111.83 51.27v59.53h100.09Zm12.6 21.85 46.17 26.69h-46.17Z" style="fill:#f4f1ef"/></g></g></svg><view id="gArtboard_6" viewBox="0 495 233.44 247.5"/><svg viewBox="0 0 233.44 247.5" width="233.44" height="247.5" y="495" xmlns="http://www.w3.org/2000/svg"><g id="gcLayer_4" data-name="Layer 4"><g id="gc_logo1" data-name="logo1"><path class="gccls-1" d="m43 195.28 42.67-46.99v46.99h21.3l77.18-78.59h-72.32l33.41 8.6-38.27 37.64v-46.18l-21.12-.06L43 163.68v-20.22l42.67-46.14 21.3 12.52V50.31l-85.45 87.66v57.31H43zm68.83 0h100.09v-17h-59.45L167.11 164h44.81v-16h-30.86l14.52-14.86c.14-.15 16.34 0 16.34 0v-16.45H191Z"/><path class="gccls-1" d="M111.83 50.31v59.53h100.09Zm12.6 21.85 46.17 26.69h-46.17Z"/></g></g></svg><view id="gArtboard_7" viewBox="233.44 495 233.44 247.5"/><svg viewBox="0 0 233.44 247.5" width="233.44" height="247.5" x="233.44" y="495" xmlns="http://www.w3.org/2000/svg"><g id="gdLayer_4" data-name="Layer 4"><g id="gd_logo2" data-name="logo2"><path class="gdcls-1" d="m43 195.28 42.67-46.99v46.99h21.3l77.18-78.59h-72.32l33.41 8.6-38.27 37.64v-46.18l-21.12-.06L43 163.68v-20.22l42.67-46.14 21.3 12.52V50.31l-85.45 87.66v57.31H43zm68.83 0h100.09v-17h-59.45L167.11 164h44.81v-16h-30.86l14.52-14.86c.14-.15 16.34 0 16.34 0v-16.45H191Z"/><path class="gdcls-1" d="M111.83 50.31v59.53h100.09Zm12.6 21.85 46.17 26.69h-46.17Z"/></g></g></svg><view id="gArtboard_9" viewBox="466.88 495 233.44 247.5"/><svg viewBox="0 0 233.44 247.5" width="233.44" height="247.5" x="466.88" y="495" xmlns="http://www.w3.org/2000/svg"><g id="geLayer_4" data-name="Layer 4"><g id="ge_logo5" data-name="logo5"><path class="gecls-1" d="m43 196.24 42.67-46.99v46.99h21.3l77.18-78.6h-72.32l33.41 8.61-38.27 37.64v-46.18l-21.12-.07-42.85 47v-20.23l42.67-46.13 21.3 12.52V51.27l-85.45 87.65v57.32H43zm68.83 0h100.09v-17h-59.45L167.11 165h44.81v-16h-30.86l14.52-14.87c.14-.14 16.34 0 16.34 0v-16.49H191Z"/><path class="gecls-1" d="M111.83 51.27v59.53h100.09Zm12.6 21.85 46.17 26.69h-46.17Z"/></g></g></svg><view id="gview--svg--sprite.view-7dddeebc" viewBox="0 0 701 495"/><svg width="701" height="495" viewBox="0 0 701 495" xmlns="http://www.w3.org/2000/svg"><view id="gfArtboard_2" viewBox="0 0 233.44 247.5"/><svg viewBox="0 0 233.44 247.5" width="233.44" height="247.5"><g id="gfaLayer_4" data-name="Layer 4"><g id="gfa_logo3" data-name="logo3"><path d="m43 202.7 42.67-46.99v46.99l21.3-.01 77.18-78.59h-72.32l33.41 8.61-38.27 37.64v-46.18l-21.12-.07-42.85 47v-20.23l42.67-46.13 21.3 12.52V57.73l-85.45 87.65v57.32H43zm68.83 0h100.09v-17h-59.45l14.64-14.24h44.81v-16h-30.86l14.52-14.87c.14-.14 16.34 0 16.34 0V124.1H191Z" style="fill:#f27921"/><path d="M111.83 57.73v59.53h100.09Zm12.6 21.85 46.17 26.69h-46.17Z"/></g></g></svg><view id="gfArtboard_4" viewBox="233.44 0 233.44 247.5"/><svg viewBox="0 0 233.44 247.5" width="233.44" height="247.5" x="233.44"><g id="gfbLayer_4" data-name="Layer 4"><g id="gfb_logo4" data-name="logo4"><path d="m43 196.24 42.67-46.99v46.99h21.3l77.18-78.6h-72.32l33.41 8.61-38.27 37.64v-46.18l-21.12-.07-42.85 47v-20.23l42.67-46.13 21.3 12.52V51.27l-85.45 87.65v57.32H43zm68.83 0h100.09v-17h-59.45L167.11 165h44.81v-16h-30.86l14.52-14.87c.14-.14 16.34 0 16.34 0v-16.49H191Z" style="fill:#f27921"/><path d="M111.83 51.27v59.53h100.09Zm12.6 21.85 46.17 26.69h-46.17Z" style="fill:#f4f1ef"/></g></g></svg><view id="gfArtboard_6" viewBox="466.88 0 233.44 247.5"/><svg viewBox="0 0 233.44 247.5" width="233.44" height="247.5" x="466.88"><g id="gfcLayer_4" data-name="Layer 4"><g id="gfc_logo1" data-name="logo1"><path class="gfccls-1" d="m43 195.28 42.67-46.99v46.99h21.3l77.18-78.59h-72.32l33.41 8.6-38.27 37.64v-46.18l-21.12-.06L43 163.68v-20.22l42.67-46.14 21.3 12.52V50.31l-85.45 87.66v57.31H43zm68.83 0h100.09v-17h-59.45L167.11 164h44.81v-16h-30.86l14.52-14.86c.14-.15 16.34 0 16.34 0v-16.45H191Z"/><path class="gfccls-1" d="M111.83 50.31v59.53h100.09Zm12.6 21.85 46.17 26.69h-46.17Z"/></g></g></svg><view id="gfArtboard_7" viewBox="0 247.5 233.44 247.5"/><svg viewBox="0 0 233.44 247.5" width="233.44" height="247.5" y="247.5"><g id="gfdLayer_4" data-name="Layer 4"><g id="gfd_logo2" data-name="logo2"><path class="gfdcls-1" d="m43 195.28 42.67-46.99v46.99h21.3l77.18-78.59h-72.32l33.41 8.6-38.27 37.64v-46.18l-21.12-.06L43 163.68v-20.22l42.67-46.14 21.3 12.52V50.31l-85.45 87.66v57.31H43zm68.83 0h100.09v-17h-59.45L167.11 164h44.81v-16h-30.86l14.52-14.86c.14-.15 16.34 0 16.34 0v-16.45H191Z"/><path class="gfdcls-1" d="M111.83 50.31v59.53h100.09Zm12.6 21.85 46.17 26.69h-46.17Z"/></g></g></svg><view id="gfArtboard_9" viewBox="233.44 247.5 233.44 247.5"/><svg viewBox="0 0 233.44 247.5" width="233.44" height="247.5" x="233.44" y="247.5"><g id="gfeLayer_4" data-name="Layer 4"><g id="gfe_logo5" data-name="logo5"><path class="gfecls-1" d="m43 196.24 42.67-46.99v46.99h21.3l77.18-78.6h-72.32l33.41 8.61-38.27 37.64v-46.18l-21.12-.07-42.85 47v-20.23l42.67-46.13 21.3 12.52V51.27l-85.45 87.65v57.32H43zm68.83 0h100.09v-17h-59.45L167.11 165h44.81v-16h-30.86l14.52-14.87c.14-.14 16.34 0 16.34 0v-16.49H191Z"/><path class="gfecls-1" d="M111.83 51.27v59.53h100.09Zm12.6 21.85 46.17 26.69h-46.17Z"/></g></g></svg></svg></svg>